<?xml version="1.0" standalone="no"?>
<svg xmlns="http://www.w3.org/2000/svg" xmlns:xlink="http://www.w3.org/1999/xlink" width="1106pt" height="1007pt" viewBox="0.00 0.00 1105.57 1007.00">
<g id="graph0" class="graph" transform="translate(4,1003) scale(1)" data-name="G">

<polygon fill="#2e3e56" stroke="none" points="-4,4 -4,-1003 1101.57,-1003 1101.57,4 -4,4" style=""/>
<g id="clust1" class="cluster" data-name="clusterMetaminer">

<path fill="#445773" stroke="#445773" d="M20,-219C20,-219 897.83,-219 897.83,-219 903.83,-219 909.83,-225 909.83,-231 909.83,-231 909.83,-786 909.83,-786 909.83,-792 903.83,-798 897.83,-798 897.83,-798 20,-798 20,-798 14,-798 8,-792 8,-786 8,-786 8,-231 8,-231 8,-225 14,-219 20,-219" style=""/>
<text text-anchor="middle" x="458.91" y="-781.4" font-family="Times,serif" font-size="14.00" fill="#f0f0f0" style="">Metaminer</text>
</g>
<g id="clust2" class="cluster" data-name="clusterIMinerList">

<path fill="#3b4b63" stroke="#e8726d" stroke-dasharray="5,2" d="M808.14,-806C808.14,-806 915.52,-806 915.52,-806 921.52,-806 927.52,-812 927.52,-818 927.52,-818 927.52,-979 927.52,-979 927.52,-985 921.52,-991 915.52,-991 915.52,-991 808.14,-991 808.14,-991 802.14,-991 796.14,-985 796.14,-979 796.14,-979 796.14,-818 796.14,-818 796.14,-812 802.14,-806 808.14,-806" style=""/>
<text text-anchor="middle" x="861.83" y="-974.4" font-family="Times,serif" font-size="14.00" fill="#f0f0f0" style="">IMinerList</text>
</g>
<g id="clust3" class="cluster" data-name="clusterIMinerFormulas">

<path fill="#3b4b63" stroke="#e8726d" stroke-dasharray="5,2" d="M646.09,-80C646.09,-80 1077.57,-80 1077.57,-80 1083.57,-80 1089.57,-86 1089.57,-92 1089.57,-92 1089.57,-199 1089.57,-199 1089.57,-205 1083.57,-211 1077.57,-211 1077.57,-211 646.09,-211 646.09,-211 640.09,-211 634.09,-205 634.09,-199 634.09,-199 634.09,-92 634.09,-92 634.09,-86 640.09,-80 646.09,-80" style=""/>
<text text-anchor="middle" x="861.83" y="-194.4" font-family="Times,serif" font-size="14.00" fill="#f0f0f0" style="">IMinerFormulas</text>
</g>
<g id="clust4" class="cluster" data-name="clusterIBlockValidator">

<path fill="#3b4b63" stroke="#e8726d" stroke-dasharray="5,2" d="M297.72,-8C297.72,-8 424.44,-8 424.44,-8 430.44,-8 436.44,-14 436.44,-20 436.44,-20 436.44,-127 436.44,-127 436.44,-133 430.44,-139 424.44,-139 424.44,-139 297.72,-139 297.72,-139 291.72,-139 285.72,-133 285.72,-127 285.72,-127 285.72,-20 285.72,-20 285.72,-14 291.72,-8 297.72,-8" style=""/>
<text text-anchor="middle" x="361.08" y="-122.4" font-family="Times,serif" font-size="14.00" fill="#f0f0f0" style="">IBlockValidator</text>
</g>
<g id="clust5" class="cluster" data-name="cluster_01">

<polygon fill="#2e3e56" stroke="black" points="58.24,-834 58.24,-963 396.08,-963 396.08,-834 58.24,-834" style=""/>
<text text-anchor="middle" x="227.16" y="-946.4" font-family="Times,serif" font-size="14.00" style="">Legend</text>
</g>
<!-- Metaminer.isMiner -->
<g id="node1" class="node" pointer-events="visible" data-name="Metaminer.isMiner">

<polygon fill="#edad56" stroke="#1bc6a6" stroke-width="3" points="175.66,-735.54 175.66,-750.46 149.64,-761 112.83,-761 86.81,-750.46 86.81,-735.54 112.83,-725 149.64,-725 175.66,-735.54" style=""/>
<polygon fill="none" stroke="#1bc6a6" stroke-width="3" points="179.66,-732.85 179.66,-753.15 150.42,-765 112.05,-765 82.81,-753.15 82.81,-732.85 112.05,-721 150.42,-721 179.66,-732.85" style=""/>
<text text-anchor="middle" x="131.24" y="-738.8" font-family="Times,serif" font-size="14.00" style="">isMiner</text>
</g>
<!-- IMinerList.isMiner -->
<g id="node21" class="node" pointer-events="visible" data-name="IMinerList.isMiner">

<ellipse fill="#edad56" stroke="#edad56" stroke-width="3" cx="861.83" cy="-940" rx="41.16" ry="18" style=""/>
<text text-anchor="middle" x="861.83" y="-935.8" font-family="Times,serif" font-size="14.00" style="">isMiner</text>
</g>
<!-- Metaminer.isMiner&#45;&gt;IMinerList.isMiner -->
<g id="edge1" class="edge" data-name="Metaminer.isMiner-&gt;IMinerList.isMiner">

<path fill="none" stroke="white" stroke-width="2" d="M179.97,-754.49C240.92,-769.62 349.34,-798.07 439.69,-830 528.27,-861.3 543.33,-888.76 634.09,-913 691.9,-928.44 760.37,-935.06 806.83,-937.89" style=""/>
<polygon fill="white" stroke="white" stroke-width="2" points="806.41,-941.38 816.6,-938.44 806.81,-934.39 806.41,-941.38" style=""/>
</g>
<!-- Metaminer.validMinerSubscription -->
<g id="node2" class="node" pointer-events="visible" data-name="Metaminer.validMinerSubscription">

<polygon fill="#edad56" stroke="#1bc6a6" stroke-width="3" points="242.7,-673.54 242.7,-688.46 177.4,-699 85.07,-699 19.77,-688.46 19.77,-673.54 85.07,-663 177.4,-663 242.7,-673.54" style=""/>
<polygon fill="none" stroke="#1bc6a6" stroke-width="3" points="246.71,-670.14 246.71,-691.86 177.73,-703 84.74,-703 15.76,-691.86 15.76,-670.14 84.74,-659 177.73,-659 246.71,-670.14" style=""/>
<text text-anchor="middle" x="131.24" y="-676.8" font-family="Times,serif" font-size="14.00" style="">validMinerSubscription</text>
</g>
<!-- Metaminer.&lt;Receive Ether&gt; -->
<g id="node3" class="node" pointer-events="visible" data-name="Metaminer.&lt;Receive Ether&gt;">

<ellipse fill="#ffbdb9" stroke="brown" stroke-width="3" cx="131.24" cy="-623" rx="76.21" ry="18" style=""/>
<text text-anchor="middle" x="131.24" y="-618.8" font-family="Times,serif" font-size="14.00" style="">&lt;Receive Ether&gt;</text>
</g>
<!-- Metaminer.initialize -->
<g id="node4" class="node" pointer-events="visible" data-name="Metaminer.initialize">

<ellipse fill="#ffbdb9" stroke="#ffbdb9" stroke-width="3" cx="131.24" cy="-569" rx="44.64" ry="18" style=""/>
<text text-anchor="middle" x="131.24" y="-564.8" font-family="Times,serif" font-size="14.00" style="">initialize</text>
</g>
<!-- Metaminer.IBlockValidator -->
<g id="node17" class="node" pointer-events="visible" data-name="Metaminer.IBlockValidator">

<ellipse fill="#edad56" stroke="#edad56" stroke-width="3" cx="361.08" cy="-515" rx="73.58" ry="18" style=""/>
<text text-anchor="middle" x="361.08" y="-510.8" font-family="Times,serif" font-size="14.00" style="">IBlockValidator</text>
</g>
<!-- Metaminer.initialize&#45;&gt;Metaminer.IBlockValidator -->
<g id="edge2" class="edge" data-name="Metaminer.initialize-&gt;Metaminer.IBlockValidator">

<path fill="none" stroke="#1bc6a6" stroke-width="2" d="M171.63,-559.7C193.64,-554.5 221.58,-547.9 246.47,-542 261.5,-538.44 277.64,-534.61 292.9,-530.98" style=""/>
<polygon fill="#1bc6a6" stroke="#1bc6a6" stroke-width="2" points="293.61,-534.41 302.53,-528.69 291.99,-527.6 293.61,-534.41" style=""/>
</g>
<!-- Metaminer.IMinerList -->
<g id="node18" class="node" pointer-events="visible" data-name="Metaminer.IMinerList">

<ellipse fill="#edad56" stroke="#edad56" stroke-width="3" cx="361.08" cy="-569" rx="52.75" ry="18" style=""/>
<text text-anchor="middle" x="361.08" y="-564.8" font-family="Times,serif" font-size="14.00" style="">IMinerList</text>
</g>
<!-- Metaminer.initialize&#45;&gt;Metaminer.IMinerList -->
<g id="edge3" class="edge" data-name="Metaminer.initialize-&gt;Metaminer.IMinerList">

<path fill="none" stroke="#1bc6a6" stroke-width="2" d="M177.25,-569C210.66,-569 256.74,-569 294.28,-569" style=""/>
<polygon fill="#1bc6a6" stroke="#1bc6a6" stroke-width="2" points="294.14,-572.5 304.14,-569 294.14,-565.5 294.14,-572.5" style=""/>
</g>
<!-- Metaminer.IMinerFormulas -->
<g id="node19" class="node" pointer-events="visible" data-name="Metaminer.IMinerFormulas">

<ellipse fill="#edad56" stroke="#edad56" stroke-width="3" cx="361.08" cy="-623" rx="74.17" ry="18" style=""/>
<text text-anchor="middle" x="361.08" y="-618.8" font-family="Times,serif" font-size="14.00" style="">IMinerFormulas</text>
</g>
<!-- Metaminer.initialize&#45;&gt;Metaminer.IMinerFormulas -->
<g id="edge4" class="edge" data-name="Metaminer.initialize-&gt;Metaminer.IMinerFormulas">

<path fill="none" stroke="#1bc6a6" stroke-width="2" d="M171.63,-578.3C193.64,-583.5 221.58,-590.1 246.47,-596 261.42,-599.54 277.47,-603.35 292.67,-606.96" style=""/>
<polygon fill="#1bc6a6" stroke="#1bc6a6" stroke-width="2" points="291.7,-610.33 302.24,-609.24 293.32,-603.52 291.7,-610.33" style=""/>
</g>
<!-- Metaminer.setMiner -->
<g id="node5" class="node" pointer-events="visible" data-name="Metaminer.setMiner">

<ellipse fill="#ffbdb9" stroke="brown" stroke-width="3" cx="131.24" cy="-407" rx="45.23" ry="18" style=""/>
<text text-anchor="middle" x="131.24" y="-402.8" font-family="Times,serif" font-size="14.00" style="">setMiner</text>
</g>
<!-- Metaminer._nextYear -->
<g id="node12" class="node" pointer-events="visible" data-name="Metaminer._nextYear">

<ellipse fill="#edad56" stroke="#edad56" stroke-width="3" cx="361.08" cy="-407" rx="51.01" ry="18" style=""/>
<text text-anchor="middle" x="361.08" y="-402.8" font-family="Times,serif" font-size="14.00" style="">_nextYear</text>
</g>
<!-- Metaminer.setMiner&#45;&gt;Metaminer._nextYear -->
<g id="edge5" class="edge" data-name="Metaminer.setMiner-&gt;Metaminer._nextYear">

<path fill="none" stroke="#1bc6a6" stroke-width="2" d="M177.8,-407C211.6,-407 258.15,-407 295.75,-407" style=""/>
<polygon fill="#1bc6a6" stroke="#1bc6a6" stroke-width="2" points="295.61,-410.5 305.61,-407 295.61,-403.5 295.61,-410.5" style=""/>
</g>
<!-- Metaminer._addShareHolder -->
<g id="node13" class="node" pointer-events="visible" data-name="Metaminer._addShareHolder">

<ellipse fill="#edad56" stroke="#edad56" stroke-width="3" cx="361.08" cy="-353" rx="78.72" ry="18" style=""/>
<text text-anchor="middle" x="361.08" y="-348.8" font-family="Times,serif" font-size="14.00" style="">_addShareHolder</text>
</g>
<!-- Metaminer.setMiner&#45;&gt;Metaminer._addShareHolder -->
<g id="edge7" class="edge" data-name="Metaminer.setMiner-&gt;Metaminer._addShareHolder">

<path fill="none" stroke="#1bc6a6" stroke-width="2" d="M171.89,-397.64C193.87,-392.45 221.68,-385.87 246.47,-380 260.81,-376.6 276.17,-372.95 290.81,-369.48" style=""/>
<polygon fill="#1bc6a6" stroke="#1bc6a6" stroke-width="2" points="291.59,-372.89 300.51,-367.17 289.97,-366.08 291.59,-372.89" style=""/>
</g>
<!-- IMinerList.addMiner -->
<g id="node22" class="node" pointer-events="visible" data-name="IMinerList.addMiner">

<ellipse fill="#edad56" stroke="#edad56" stroke-width="3" cx="861.83" cy="-886" rx="48.66" ry="18" style=""/>
<text text-anchor="middle" x="861.83" y="-881.8" font-family="Times,serif" font-size="14.00" style="">addMiner</text>
</g>
<!-- Metaminer.setMiner&#45;&gt;IMinerList.addMiner -->
<g id="edge6" class="edge" data-name="Metaminer.setMiner-&gt;IMinerList.addMiner">

<path fill="none" stroke="white" stroke-width="2" d="M177.64,-406.12C201.51,-408.18 229.3,-415.04 246.47,-434 327.44,-523.41 209.31,-607.1 282.47,-703 306.15,-734.04 571.79,-821.34 606.09,-840 619.3,-847.19 620,-853.74 634.09,-859 687.44,-878.92 752.31,-884.99 798.98,-886.47" style=""/>
<polygon fill="white" stroke="white" stroke-width="2" points="798.83,-889.97 808.91,-886.71 798.99,-882.97 798.83,-889.97" style=""/>
</g>
<!-- IMinerFormulas.METAMINER_MINER_POOL_SHARE_PERCENT -->
<g id="node24" class="node" pointer-events="visible" data-name="IMinerFormulas.METAMINER_MINER_POOL_SHARE_PERCENT">

<ellipse fill="#edad56" stroke="#edad56" stroke-width="3" cx="861.83" cy="-160" rx="219.98" ry="18" style=""/>
<text text-anchor="middle" x="861.83" y="-155.8" font-family="Times,serif" font-size="14.00" style="">METAMINER_MINER_POOL_SHARE_PERCENT</text>
</g>
<!-- Metaminer.setMiner&#45;&gt;IMinerFormulas.METAMINER_MINER_POOL_SHARE_PERCENT -->
<g id="edge8" class="edge" data-name="Metaminer.setMiner-&gt;IMinerFormulas.METAMINER_MINER_POOL_SHARE_PERCENT">

<path fill="none" stroke="white" stroke-width="2" d="M177.72,-406.4C200.88,-403.81 227.97,-396.91 246.47,-380 283.82,-345.86 244.44,-305.37 282.47,-272 315.83,-242.73 569.76,-201.68 729.87,-178.26" style=""/>
<polygon fill="white" stroke="white" stroke-width="2" points="730.28,-181.74 739.67,-176.84 729.27,-174.81 730.28,-181.74" style=""/>
</g>
<!-- Metaminer.subscribe -->
<g id="node6" class="node" pointer-events="visible" data-name="Metaminer.subscribe">

<ellipse fill="#ffbdb9" stroke="brown" stroke-width="3" cx="131.24" cy="-515" rx="47.52" ry="18" style=""/>
<text text-anchor="middle" x="131.24" y="-510.8" font-family="Times,serif" font-size="14.00" style="">subscribe</text>
</g>
<!-- Metaminer.subscribe&#45;&gt;Metaminer._nextYear -->
<g id="edge9" class="edge" data-name="Metaminer.subscribe-&gt;Metaminer._nextYear">

<path fill="none" stroke="#1bc6a6" stroke-width="2" d="M179.38,-511.8C201.35,-508.42 226.89,-501.61 246.47,-488 270.16,-471.54 259.66,-451.66 282.47,-434 288.91,-429.01 296.34,-424.91 303.99,-421.54" style=""/>
<polygon fill="#1bc6a6" stroke="#1bc6a6" stroke-width="2" points="305.23,-424.82 313.28,-417.93 302.69,-418.29 305.23,-424.82" style=""/>
</g>
<!-- Metaminer.unsubscribe -->
<g id="node7" class="node" pointer-events="visible" data-name="Metaminer.unsubscribe">

<ellipse fill="#ffbdb9" stroke="#ffbdb9" stroke-width="3" cx="361.08" cy="-461" rx="57.33" ry="18" style=""/>
<text text-anchor="middle" x="361.08" y="-456.8" font-family="Times,serif" font-size="14.00" style="">unsubscribe</text>
</g>
<!-- Metaminer._unsubscribe -->
<g id="node15" class="node" pointer-events="visible" data-name="Metaminer._unsubscribe">

<ellipse fill="#edad56" stroke="#edad56" stroke-width="3" cx="540.89" cy="-416" rx="61.99" ry="18" style=""/>
<text text-anchor="middle" x="540.89" y="-411.8" font-family="Times,serif" font-size="14.00" style="">_unsubscribe</text>
</g>
<!-- Metaminer.unsubscribe&#45;&gt;Metaminer._unsubscribe -->
<g id="edge10" class="edge" data-name="Metaminer.unsubscribe-&gt;Metaminer._unsubscribe">

<path fill="none" stroke="#1bc6a6" stroke-width="2" d="M407.87,-449.41C429.58,-443.92 455.81,-437.28 479.15,-431.37" style=""/>
<polygon fill="#1bc6a6" stroke="#1bc6a6" stroke-width="2" points="480,-434.77 488.83,-428.92 478.28,-427.98 480,-434.77" style=""/>
</g>
<!-- Metaminer.setValidator -->
<g id="node8" class="node" pointer-events="visible" data-name="Metaminer.setValidator">

<ellipse fill="#ffbdb9" stroke="#ffbdb9" stroke-width="3" cx="131.24" cy="-353" rx="58.46" ry="18" style=""/>
<text text-anchor="middle" x="131.24" y="-348.8" font-family="Times,serif" font-size="14.00" style="">setValidator</text>
</g>
<!-- Metaminer.setValidator&#45;&gt;Metaminer._nextYear -->
<g id="edge11" class="edge" data-name="Metaminer.setValidator-&gt;Metaminer._nextYear">

<path fill="none" stroke="#1bc6a6" stroke-width="2" d="M180.04,-364.28C200.5,-369.12 224.66,-374.83 246.47,-380 265.21,-384.44 285.69,-389.31 304.04,-393.67" style=""/>
<polygon fill="#1bc6a6" stroke="#1bc6a6" stroke-width="2" points="303.17,-397.06 313.71,-395.97 304.79,-390.25 303.17,-397.06" style=""/>
</g>
<!-- Metaminer.setValidator&#45;&gt;Metaminer._addShareHolder -->
<g id="edge13" class="edge" data-name="Metaminer.setValidator-&gt;Metaminer._addShareHolder">

<path fill="none" stroke="#1bc6a6" stroke-width="2" d="M190.91,-353C214.37,-353 241.96,-353 267.97,-353" style=""/>
<polygon fill="#1bc6a6" stroke="#1bc6a6" stroke-width="2" points="267.96,-356.5 277.96,-353 267.96,-349.5 267.96,-356.5" style=""/>
</g>
<!-- Metaminer.setValidator&#45;&gt;IMinerList.addMiner -->
<g id="edge12" class="edge" data-name="Metaminer.setValidator-&gt;IMinerList.addMiner">

<path fill="none" stroke="white" stroke-width="2" d="M191.08,-353.78C211.35,-357.1 232.45,-364.51 246.47,-380 327.71,-469.76 205.49,-556.56 282.47,-650 329.36,-706.91 371.6,-674.7 439.69,-703 516.01,-734.72 550.53,-724.81 606.09,-786 629.45,-811.73 606.67,-837.65 634.09,-859 681.75,-896.11 753.01,-898.61 802.89,-894.55" style=""/>
<polygon fill="white" stroke="white" stroke-width="2" points="803.08,-898.05 812.7,-893.61 802.41,-891.08 803.08,-898.05" style=""/>
</g>
<!-- Metaminer.setValidator&#45;&gt;IMinerFormulas.METAMINER_MINER_POOL_SHARE_PERCENT -->
<g id="edge14" class="edge" data-name="Metaminer.setValidator-&gt;IMinerFormulas.METAMINER_MINER_POOL_SHARE_PERCENT">

<path fill="none" stroke="white" stroke-width="2" d="M190.43,-350.54C210.27,-346.99 231.26,-339.87 246.47,-326 283.55,-292.2 243.27,-250.31 282.47,-219 311.69,-195.66 500.93,-179.57 655.1,-170.16" style=""/>
<polygon fill="white" stroke="white" stroke-width="2" points="655.23,-173.66 665,-169.56 654.81,-166.67 655.23,-173.66" style=""/>
</g>
<!-- Metaminer.refreshValidator -->
<g id="node9" class="node" pointer-events="visible" data-name="Metaminer.refreshValidator">

<ellipse fill="#ffbdb9" stroke="#ffbdb9" stroke-width="3" cx="131.24" cy="-461" rx="74.12" ry="18" style=""/>
<text text-anchor="middle" x="131.24" y="-456.8" font-family="Times,serif" font-size="14.00" style="">refreshValidator</text>
</g>
<!-- Metaminer.refreshValidator&#45;&gt;Metaminer._nextYear -->
<g id="edge15" class="edge" data-name="Metaminer.refreshValidator-&gt;Metaminer._nextYear">

<path fill="none" stroke="#1bc6a6" stroke-width="2" d="M187.44,-447.97C206.18,-443.54 227.24,-438.56 246.47,-434 265.21,-429.56 285.69,-424.69 304.04,-420.33" style=""/>
<polygon fill="#1bc6a6" stroke="#1bc6a6" stroke-width="2" points="304.79,-423.75 313.71,-418.03 303.17,-416.94 304.79,-423.75" style=""/>
</g>
<!-- Metaminer.setPercentages -->
<g id="node10" class="node" pointer-events="visible" data-name="Metaminer.setPercentages">

<ellipse fill="#ffbdb9" stroke="#ffbdb9" stroke-width="3" cx="131.24" cy="-299" rx="67.76" ry="18" style=""/>
<text text-anchor="middle" x="131.24" y="-294.8" font-family="Times,serif" font-size="14.00" style="">setPercentages</text>
</g>
<!-- Metaminer.setPercentages&#45;&gt;Metaminer._addShareHolder -->
<g id="edge17" class="edge" data-name="Metaminer.setPercentages-&gt;Metaminer._addShareHolder">

<path fill="none" stroke="#1bc6a6" stroke-width="2" d="M184.56,-311.35C204,-315.95 226.24,-321.21 246.47,-326 260.81,-329.4 276.17,-333.05 290.81,-336.52" style=""/>
<polygon fill="#1bc6a6" stroke="#1bc6a6" stroke-width="2" points="289.97,-339.92 300.51,-338.83 291.59,-333.11 289.97,-339.92" style=""/>
</g>
<!-- IMinerFormulas.BASE_DIVIDER -->
<g id="node25" class="node" pointer-events="visible" data-name="IMinerFormulas.BASE_DIVIDER">

<ellipse fill="#edad56" stroke="#edad56" stroke-width="3" cx="861.83" cy="-106" rx="80.49" ry="18" style=""/>
<text text-anchor="middle" x="861.83" y="-101.8" font-family="Times,serif" font-size="14.00" style="">BASE_DIVIDER</text>
</g>
<!-- Metaminer.setPercentages&#45;&gt;IMinerFormulas.BASE_DIVIDER -->
<g id="edge16" class="edge" data-name="Metaminer.setPercentages-&gt;IMinerFormulas.BASE_DIVIDER">

<path fill="none" stroke="white" stroke-width="2" d="M198.21,-294.26C215.45,-290.29 232.97,-283.49 246.47,-272 278.33,-244.87 249.48,-210.74 282.47,-185 320.29,-155.49 618.59,-126.41 771.34,-113.27" style=""/>
<polygon fill="white" stroke="white" stroke-width="2" points="771.63,-116.76 781.3,-112.42 771.03,-109.79 771.63,-116.76" style=""/>
</g>
<!-- Metaminer.finalizeBlock -->
<g id="node11" class="node" pointer-events="visible" data-name="Metaminer.finalizeBlock">

<ellipse fill="#ffbdb9" stroke="brown" stroke-width="3" cx="131.24" cy="-245" rx="63.11" ry="18" style=""/>
<text text-anchor="middle" x="131.24" y="-240.8" font-family="Times,serif" font-size="14.00" style="">finalizeBlock</text>
</g>
<!-- Metaminer._shareIncome -->
<g id="node14" class="node" pointer-events="visible" data-name="Metaminer._shareIncome">

<ellipse fill="#edad56" stroke="#edad56" stroke-width="3" cx="540.89" cy="-279" rx="65.39" ry="18" style=""/>
<text text-anchor="middle" x="540.89" y="-274.8" font-family="Times,serif" font-size="14.00" style="">_shareIncome</text>
</g>
<!-- Metaminer.finalizeBlock&#45;&gt;Metaminer._shareIncome -->
<g id="edge20" class="edge" data-name="Metaminer.finalizeBlock-&gt;Metaminer._shareIncome">

<path fill="none" stroke="#1bc6a6" stroke-width="2" d="M193.27,-250.09C265.54,-256.12 385.95,-266.16 464.12,-272.68" style=""/>
<polygon fill="#1bc6a6" stroke="#1bc6a6" stroke-width="2" points="463.49,-276.14 473.75,-273.48 464.07,-269.16 463.49,-276.14" style=""/>
</g>
<!-- Metaminer._minerCheck -->
<g id="node16" class="node" pointer-events="visible" data-name="Metaminer._minerCheck">

<ellipse fill="#edad56" stroke="#edad56" stroke-width="3" cx="361.08" cy="-299" rx="63.12" ry="18" style=""/>
<text text-anchor="middle" x="361.08" y="-294.8" font-family="Times,serif" font-size="14.00" style="">_minerCheck</text>
</g>
<!-- Metaminer.finalizeBlock&#45;&gt;Metaminer._minerCheck -->
<g id="edge18" class="edge" data-name="Metaminer.finalizeBlock-&gt;Metaminer._minerCheck">

<path fill="none" stroke="#1bc6a6" stroke-width="2" d="M182.28,-256.82C202.25,-261.53 225.45,-267.02 246.47,-272 263.06,-275.93 281,-280.19 297.62,-284.14" style=""/>
<polygon fill="#1bc6a6" stroke="#1bc6a6" stroke-width="2" points="296.55,-287.48 307.09,-286.39 298.17,-280.67 296.55,-287.48" style=""/>
</g>
<!-- IBlockValidator.blockPayloads -->
<g id="node26" class="node" pointer-events="visible" data-name="IBlockValidator.blockPayloads">

<ellipse fill="#edad56" stroke="#edad56" stroke-width="3" cx="361.08" cy="-88" rx="67.22" ry="18" style=""/>
<text text-anchor="middle" x="361.08" y="-83.8" font-family="Times,serif" font-size="14.00" style="">blockPayloads</text>
</g>
<!-- Metaminer.finalizeBlock&#45;&gt;IBlockValidator.blockPayloads -->
<g id="edge19" class="edge" data-name="Metaminer.finalizeBlock-&gt;IBlockValidator.blockPayloads">

<path fill="none" stroke="white" stroke-width="2" d="M157.93,-227.3C198.44,-199.38 277.31,-145.04 323.65,-113.1" style=""/>
<polygon fill="white" stroke="white" stroke-width="2" points="325.39,-116.15 331.64,-107.6 321.42,-110.39 325.39,-116.15" style=""/>
</g>
<!-- IBlockValidator.finalizeBlock -->
<g id="node27" class="node" pointer-events="visible" data-name="IBlockValidator.finalizeBlock">

<ellipse fill="#edad56" stroke="#edad56" stroke-width="3" cx="361.08" cy="-34" rx="63.11" ry="18" style=""/>
<text text-anchor="middle" x="361.08" y="-29.8" font-family="Times,serif" font-size="14.00" style="">finalizeBlock</text>
</g>
<!-- Metaminer.finalizeBlock&#45;&gt;IBlockValidator.finalizeBlock -->
<g id="edge21" class="edge" data-name="Metaminer.finalizeBlock-&gt;IBlockValidator.finalizeBlock">

<path fill="none" stroke="white" stroke-width="2" d="M142.87,-225.92C164.44,-188.88 216.91,-106.86 282.47,-61 287.74,-57.31 293.56,-54.09 299.58,-51.27" style=""/>
<polygon fill="white" stroke="white" stroke-width="2" points="300.63,-54.63 308.5,-47.53 297.93,-48.17 300.63,-54.63" style=""/>
</g>
<!-- Metaminer.address -->
<g id="node20" class="node" pointer-events="visible" data-name="Metaminer.address">

<ellipse fill="#edad56" stroke="#edad56" stroke-width="3" cx="861.83" cy="-370" rx="40" ry="18" style=""/>
<text text-anchor="middle" x="861.83" y="-365.8" font-family="Times,serif" font-size="14.00" style="">address</text>
</g>
<!-- Metaminer._shareIncome&#45;&gt;Metaminer.address -->
<g id="edge23" class="edge" data-name="Metaminer._shareIncome-&gt;Metaminer.address">

<path fill="none" stroke="#1bc6a6" stroke-width="2" d="M588.95,-292.43C649.45,-309.69 753.88,-339.48 814.18,-356.69" style=""/>
<polygon fill="#1bc6a6" stroke="#1bc6a6" stroke-width="2" points="812.86,-359.95 823.43,-359.33 814.78,-353.22 812.86,-359.95" style=""/>
</g>
<!-- Metaminer._shareIncome&#45;&gt;IMinerFormulas.BASE_DIVIDER -->
<g id="edge22" class="edge" data-name="Metaminer._shareIncome-&gt;IMinerFormulas.BASE_DIVIDER">

<path fill="none" stroke="white" stroke-width="2" d="M553.33,-259.94C576.61,-221.27 627.84,-136.94 634.09,-133 674.67,-107.39 727.57,-99.96 772.06,-99.25" style=""/>
<polygon fill="white" stroke="white" stroke-width="2" points="771.95,-102.75 781.95,-99.23 771.94,-95.75 771.95,-102.75" style=""/>
</g>
<!-- Metaminer._unsubscribe&#45;&gt;Metaminer.address -->
<g id="edge24" class="edge" data-name="Metaminer._unsubscribe-&gt;Metaminer.address">

<path fill="none" stroke="#1bc6a6" stroke-width="2" d="M598.18,-407.88C657.9,-399.27 751.47,-385.77 809.31,-377.43" style=""/>
<polygon fill="#1bc6a6" stroke="#1bc6a6" stroke-width="2" points="809.75,-380.9 819.15,-376.01 808.75,-373.97 809.75,-380.9" style=""/>
</g>
<!-- IMinerList.deleteMiner -->
<g id="node23" class="node" pointer-events="visible" data-name="IMinerList.deleteMiner">

<ellipse fill="#edad56" stroke="#edad56" stroke-width="3" cx="861.83" cy="-832" rx="57.88" ry="18" style=""/>
<text text-anchor="middle" x="861.83" y="-827.8" font-family="Times,serif" font-size="14.00" style="">deleteMiner</text>
</g>
<!-- Metaminer._unsubscribe&#45;&gt;IMinerList.deleteMiner -->
<g id="edge25" class="edge" data-name="Metaminer._unsubscribe-&gt;IMinerList.deleteMiner">

<path fill="none" stroke="white" stroke-width="2" d="M546.81,-435.13C557.8,-477.99 585.02,-585.01 606.09,-675 619.26,-731.28 591.51,-762.91 634.09,-802 677.14,-841.52 745.64,-845.52 796.09,-841.77" style=""/>
<polygon fill="white" stroke="white" stroke-width="2" points="796.17,-845.28 805.81,-840.9 795.54,-838.3 796.17,-845.28" style=""/>
</g>
<!-- Metaminer._minerCheck&#45;&gt;Metaminer._unsubscribe -->
<g id="edge26" class="edge" data-name="Metaminer._minerCheck-&gt;Metaminer._unsubscribe">

<path fill="none" stroke="#1bc6a6" stroke-width="2" d="M408.98,-311.95C419.44,-315.75 430.23,-320.42 439.69,-326 468.12,-342.78 495.66,-368.42 514.65,-388.04" style=""/>
<polygon fill="#1bc6a6" stroke="#1bc6a6" stroke-width="2" points="512.01,-390.35 521.42,-395.2 517.09,-385.54 512.01,-390.35" style=""/>
</g>
<!-- key -->
<g id="node28" class="node" pointer-events="visible" data-name="key">

<polygon fill="#edad56" stroke="none" stroke-width="3" points="196.24,-930 66.24,-930 66.24,-842 196.24,-842 196.24,-930" style=""/>
<text text-anchor="start" x="115.87" y="-911.4" font-family="Times,serif" font-size="14.00" style="">Internal Call</text>
<text text-anchor="start" x="111.98" y="-891.4" font-family="Times,serif" font-size="14.00" style="">External Call</text>
<text text-anchor="start" x="89.44" y="-871.4" font-family="Times,serif" font-size="14.00" style="">Defined Contract</text>
<text text-anchor="start" x="75.84" y="-851.4" font-family="Times,serif" font-size="14.00" style="">Undefined Contract</text>
</g>
<!-- key2 -->
<g id="node29" class="node" pointer-events="visible" data-name="key2">

<polygon fill="#edad56" stroke="none" stroke-width="3" points="388.08,-930 334.08,-930 334.08,-842 388.08,-842 388.08,-930" style=""/>
<text text-anchor="start" x="351.08" y="-911.4" font-family="Times,serif" font-size="14.00" style="">   </text>
<text text-anchor="start" x="351.08" y="-891.4" font-family="Times,serif" font-size="14.00" style="">   </text>
<polygon fill="#445773" stroke="none" points="349.08,-866 349.08,-886 374.08,-886 374.08,-866 349.08,-866" style=""/>
<text text-anchor="start" x="351.08" y="-871.4" font-family="Times,serif" font-size="14.00" style="">   </text>
<polygon fill="none" stroke="#e8726d" points="351.08,-848 351.08,-864 372.08,-864 372.08,-848 351.08,-848" style=""/>
</g>
<!-- key&#45;&gt;key2 -->
<g id="edge27" class="edge" data-name="key-&gt;key2">

<path fill="none" stroke="#1bc6a6" stroke-width="2" d="M189.24,-916C255.28,-916 274.99,-916 335.06,-916" style=""/>
<polygon fill="#1bc6a6" stroke="#1bc6a6" stroke-width="2" points="335.06,-919.5 345.06,-916 335.06,-912.5 335.06,-919.5" style=""/>
</g>
<!-- key&#45;&gt;key2 -->
<g id="edge28" class="edge" data-name="key-&gt;key2">

<path fill="none" stroke="white" stroke-width="2" d="M189.24,-896C255.28,-896 274.99,-896 335.06,-896" style=""/>
<polygon fill="white" stroke="white" stroke-width="2" points="335.06,-899.5 345.06,-896 335.06,-892.5 335.06,-899.5" style=""/>
</g>
</g>
</svg>