<?xml version="1.0" standalone="no"?>
<svg xmlns="http://www.w3.org/2000/svg" xmlns:xlink="http://www.w3.org/1999/xlink" width="329pt" height="400pt" viewBox="0.00 0.00 328.61 400.00">
<g id="graph0" class="graph" transform="translate(4,396) scale(1)" data-name="G">

<polygon fill="#2e3e56" stroke="none" points="-4,4 -4,-396 324.61,-396 324.61,4 -4,4" style=""/>
<g id="clust1" class="cluster" data-name="clusterMTC">

<path fill="#445773" stroke="#445773" d="M20,-8C20,-8 300.61,-8 300.61,-8 306.61,-8 312.61,-14 312.61,-20 312.61,-20 312.61,-235 312.61,-235 312.61,-241 306.61,-247 300.61,-247 300.61,-247 20,-247 20,-247 14,-247 8,-241 8,-235 8,-235 8,-20 8,-20 8,-14 14,-8 20,-8" style=""/>
<text text-anchor="middle" x="160.3" y="-230.4" font-family="Times,serif" font-size="14.00" fill="#f0f0f0" style="">MTC</text>
</g>
<g id="clust2" class="cluster" data-name="cluster_01">

<polygon fill="#2e3e56" stroke="black" points="10.53,-255 10.53,-384 280.83,-384 280.83,-255 10.53,-255" style=""/>
<text text-anchor="middle" x="145.68" y="-367.4" font-family="Times,serif" font-size="14.00" style="">Legend</text>
</g>
<!-- MTC.&lt;Constructor&gt; -->
<g id="node1" class="node" pointer-events="visible" data-name="MTC.&lt;Constructor&gt;">

<ellipse fill="#ff9797" stroke="#ff9797" stroke-width="3" cx="83.53" cy="-155" rx="67.55" ry="18" style=""/>
<text text-anchor="middle" x="83.53" y="-150.8" font-family="Times,serif" font-size="14.00" style="">&lt;Constructor&gt;</text>
</g>
<!-- MTC._mint -->
<g id="node3" class="node" pointer-events="visible" data-name="MTC._mint">

<ellipse fill="#edad56" stroke="#edad56" stroke-width="3" cx="245.83" cy="-142" rx="33.64" ry="18" style=""/>
<text text-anchor="middle" x="245.83" y="-137.8" font-family="Times,serif" font-size="14.00" style="">_mint</text>
</g>
<!-- MTC.&lt;Constructor&gt;&#45;&gt;MTC._mint -->
<g id="edge1" class="edge" data-name="MTC.&lt;Constructor&gt;-&gt;MTC._mint">

<path fill="none" stroke="#1bc6a6" stroke-width="2" d="M149.73,-149.71C166.09,-148.39 183.31,-146.99 198.53,-145.75" style=""/>
<polygon fill="#1bc6a6" stroke="#1bc6a6" stroke-width="2" points="198.62,-149.26 208.31,-144.96 198.06,-142.28 198.62,-149.26" style=""/>
</g>
<!-- MTC._msgSender -->
<g id="node4" class="node" pointer-events="visible" data-name="MTC._msgSender">

<ellipse fill="#edad56" stroke="#edad56" stroke-width="3" cx="245.83" cy="-196" rx="58.56" ry="18" style=""/>
<text text-anchor="middle" x="245.83" y="-191.8" font-family="Times,serif" font-size="14.00" style="">_msgSender</text>
</g>
<!-- MTC.&lt;Constructor&gt;&#45;&gt;MTC._msgSender -->
<g id="edge2" class="edge" data-name="MTC.&lt;Constructor&gt;-&gt;MTC._msgSender">

<path fill="none" stroke="#1bc6a6" stroke-width="2" d="M134.81,-167.86C151.05,-172.01 169.2,-176.66 186.01,-180.96" style=""/>
<polygon fill="#1bc6a6" stroke="#1bc6a6" stroke-width="2" points="185.05,-184.32 195.61,-183.41 186.79,-177.54 185.05,-184.32" style=""/>
</g>
<!-- MTC.submitPools -->
<g id="node2" class="node" pointer-events="visible" data-name="MTC.submitPools">

<ellipse fill="#ffbdb9" stroke="#ffbdb9" stroke-width="3" cx="83.53" cy="-74" rx="58.6" ry="18" style=""/>
<text text-anchor="middle" x="83.53" y="-69.8" font-family="Times,serif" font-size="14.00" style="">submitPools</text>
</g>
<!-- MTC.address -->
<g id="node5" class="node" pointer-events="visible" data-name="MTC.address">

<ellipse fill="#edad56" stroke="#edad56" stroke-width="3" cx="245.83" cy="-34" rx="40" ry="18" style=""/>
<text text-anchor="middle" x="245.83" y="-29.8" font-family="Times,serif" font-size="14.00" style="">address</text>
</g>
<!-- MTC.submitPools&#45;&gt;MTC.address -->
<g id="edge3" class="edge" data-name="MTC.submitPools-&gt;MTC.address">

<path fill="none" stroke="#1bc6a6" stroke-width="2" d="M131.32,-62.32C151.91,-57.19 176.07,-51.16 196.8,-45.99" style=""/>
<polygon fill="#1bc6a6" stroke="#1bc6a6" stroke-width="2" points="197.4,-49.44 206.26,-43.62 195.71,-42.65 197.4,-49.44" style=""/>
</g>
<!-- MTC.transfer -->
<g id="node6" class="node" pointer-events="visible" data-name="MTC.transfer">

<ellipse fill="#edad56" stroke="#edad56" stroke-width="3" cx="245.83" cy="-88" rx="40.55" ry="18" style=""/>
<text text-anchor="middle" x="245.83" y="-83.8" font-family="Times,serif" font-size="14.00" style="">transfer</text>
</g>
<!-- MTC.submitPools&#45;&gt;MTC.transfer -->
<g id="edge4" class="edge" data-name="MTC.submitPools-&gt;MTC.transfer">

<path fill="none" stroke="#1bc6a6" stroke-width="2" d="M141.49,-78.98C157.97,-80.41 175.87,-81.98 192.08,-83.39" style=""/>
<polygon fill="#1bc6a6" stroke="#1bc6a6" stroke-width="2" points="191.37,-86.84 201.63,-84.23 191.98,-79.87 191.37,-86.84" style=""/>
</g>
<!-- key -->
<g id="node7" class="node" pointer-events="visible" data-name="key">

<polygon fill="#edad56" stroke="none" stroke-width="3" points="148.53,-351 18.53,-351 18.53,-263 148.53,-263 148.53,-351" style=""/>
<text text-anchor="start" x="68.16" y="-332.4" font-family="Times,serif" font-size="14.00" style="">Internal Call</text>
<text text-anchor="start" x="64.27" y="-312.4" font-family="Times,serif" font-size="14.00" style="">External Call</text>
<text text-anchor="start" x="41.73" y="-292.4" font-family="Times,serif" font-size="14.00" style="">Defined Contract</text>
<text text-anchor="start" x="28.13" y="-272.4" font-family="Times,serif" font-size="14.00" style="">Undefined Contract</text>
</g>
<!-- key2 -->
<g id="node8" class="node" pointer-events="visible" data-name="key2">

<polygon fill="#edad56" stroke="none" stroke-width="3" points="272.83,-351 218.83,-351 218.83,-263 272.83,-263 272.83,-351" style=""/>
<text text-anchor="start" x="235.83" y="-332.4" font-family="Times,serif" font-size="14.00" style="">   </text>
<text text-anchor="start" x="235.83" y="-312.4" font-family="Times,serif" font-size="14.00" style="">   </text>
<polygon fill="#445773" stroke="none" points="233.83,-287 233.83,-307 258.83,-307 258.83,-287 233.83,-287" style=""/>
<text text-anchor="start" x="235.83" y="-292.4" font-family="Times,serif" font-size="14.00" style="">   </text>
<polygon fill="none" stroke="#e8726d" points="235.83,-269 235.83,-285 256.83,-285 256.83,-269 235.83,-269" style=""/>
</g>
<!-- key&#45;&gt;key2 -->
<g id="edge5" class="edge" data-name="key-&gt;key2">

<path fill="none" stroke="#1bc6a6" stroke-width="2" d="M141.53,-337C177.51,-337 189.56,-337 220.12,-337" style=""/>
<polygon fill="#1bc6a6" stroke="#1bc6a6" stroke-width="2" points="219.8,-340.5 229.8,-337 219.8,-333.5 219.8,-340.5" style=""/>
</g>
<!-- key&#45;&gt;key2 -->
<g id="edge6" class="edge" data-name="key-&gt;key2">

<path fill="none" stroke="white" stroke-width="2" d="M141.53,-317C177.51,-317 189.56,-317 220.12,-317" style=""/>
<polygon fill="white" stroke="white" stroke-width="2" points="219.8,-320.5 229.8,-317 219.8,-313.5 219.8,-320.5" style=""/>
</g>
</g>
</svg>