<?xml version="1.0" standalone="no"?>
<svg xmlns="http://www.w3.org/2000/svg" xmlns:xlink="http://www.w3.org/1999/xlink" width="388pt" height="632pt" viewBox="0.00 0.00 388.31 632.00">
<g id="graph0" class="graph" transform="translate(4,628) scale(1)" data-name="G">

<polygon fill="#2e3e56" stroke="none" points="-4,4 -4,-628 384.31,-628 384.31,4 -4,4" style=""/>
<g id="clust1" class="cluster" data-name="clusterTokenDistributorWithNoVesting">

<path fill="#445773" stroke="#445773" d="M20,-178C20,-178 359.8,-178 359.8,-178 365.8,-178 371.8,-184 371.8,-190 371.8,-190 371.8,-467 371.8,-467 371.8,-473 365.8,-479 359.8,-479 359.8,-479 20,-479 20,-479 14,-479 8,-473 8,-467 8,-467 8,-190 8,-190 8,-184 14,-178 20,-178" style=""/>
<text text-anchor="middle" x="189.9" y="-462.4" font-family="Times,serif" font-size="14.00" fill="#f0f0f0" style="">TokenDistributorWithNoVesting</text>
</g>
<g id="clust2" class="cluster" data-name="clusterIERC20">

<path fill="#3b4b63" stroke="#e8726d" stroke-dasharray="5,2" d="M258.31,-93C258.31,-93 351.73,-93 351.73,-93 357.73,-93 363.73,-99 363.73,-105 363.73,-105 363.73,-158 363.73,-158 363.73,-164 357.73,-170 351.73,-170 351.73,-170 258.31,-170 258.31,-170 252.31,-170 246.31,-164 246.31,-158 246.31,-158 246.31,-105 246.31,-105 246.31,-99 252.31,-93 258.31,-93" style=""/>
<text text-anchor="middle" x="305.02" y="-153.4" font-family="Times,serif" font-size="14.00" fill="#f0f0f0" style="">IERC20</text>
</g>
<g id="clust3" class="cluster" data-name="clusterSafeERC20">

<path fill="#3b4b63" stroke="#e8726d" stroke-dasharray="5,2" d="M249.73,-8C249.73,-8 360.31,-8 360.31,-8 366.31,-8 372.31,-14 372.31,-20 372.31,-20 372.31,-73 372.31,-73 372.31,-79 366.31,-85 360.31,-85 360.31,-85 249.73,-85 249.73,-85 243.73,-85 237.73,-79 237.73,-73 237.73,-73 237.73,-20 237.73,-20 237.73,-14 243.73,-8 249.73,-8" style=""/>
<text text-anchor="middle" x="305.02" y="-68.4" font-family="Times,serif" font-size="14.00" fill="#f0f0f0" style="">SafeERC20</text>
</g>
<g id="clust4" class="cluster" data-name="cluster_01">

<polygon fill="#2e3e56" stroke="black" points="39.86,-487 39.86,-616 340.02,-616 340.02,-487 39.86,-487" style=""/>
<text text-anchor="middle" x="189.94" y="-599.4" font-family="Times,serif" font-size="14.00" style="">Legend</text>
</g>
<!-- TokenDistributorWithNoVesting.&lt;Constructor&gt; -->
<g id="node1" class="node" pointer-events="visible" data-name="TokenDistributorWithNoVesting.&lt;Constructor&gt;">

<ellipse fill="#ff9797" stroke="#ff9797" stroke-width="3" cx="112.86" cy="-428" rx="67.55" ry="18" style=""/>
<text text-anchor="middle" x="112.86" y="-423.8" font-family="Times,serif" font-size="14.00" style="">&lt;Constructor&gt;</text>
</g>
<!-- TokenDistributorWithNoVesting.address -->
<g id="node6" class="node" pointer-events="visible" data-name="TokenDistributorWithNoVesting.address">

<ellipse fill="#edad56" stroke="#edad56" stroke-width="3" cx="305.02" cy="-312" rx="40" ry="18" style=""/>
<text text-anchor="middle" x="305.02" y="-307.8" font-family="Times,serif" font-size="14.00" style="">address</text>
</g>
<!-- TokenDistributorWithNoVesting.&lt;Constructor&gt;&#45;&gt;TokenDistributorWithNoVesting.address -->
<g id="edge1" class="edge" data-name="TokenDistributorWithNoVesting.&lt;Constructor&gt;-&gt;TokenDistributorWithNoVesting.address">

<path fill="none" stroke="#1bc6a6" stroke-width="2" d="M155.22,-412.67C172.79,-407.79 193.03,-401.46 209.73,-392 234.85,-377.77 258.46,-355.46 275.78,-337.87" style=""/>
<polygon fill="#1bc6a6" stroke="#1bc6a6" stroke-width="2" points="278.15,-340.45 282.61,-330.83 273.13,-335.57 278.15,-340.45" style=""/>
</g>
<!-- TokenDistributorWithNoVesting.&lt;Constructor&gt;&#45;&gt;TokenDistributorWithNoVesting.address -->
<g id="edge2" class="edge" data-name="TokenDistributorWithNoVesting.&lt;Constructor&gt;-&gt;TokenDistributorWithNoVesting.address">

<path fill="none" stroke="#1bc6a6" stroke-width="2" d="M179.52,-422.96C189.97,-419.59 200.4,-415.29 209.73,-410 240.36,-392.64 268.76,-363.27 286.22,-341" style=""/>
<polygon fill="#1bc6a6" stroke="#1bc6a6" stroke-width="2" points="288.9,-343.25 292.06,-333.14 283.29,-339.07 288.9,-343.25" style=""/>
</g>
<!-- TokenDistributorWithNoVesting.isSettable -->
<g id="node2" class="node" pointer-events="visible" data-name="TokenDistributorWithNoVesting.isSettable">

<polygon fill="#edad56" stroke="#1bc6a6" stroke-width="3" points="165.53,-362.54 165.53,-377.46 134.68,-388 91.05,-388 60.2,-377.46 60.2,-362.54 91.05,-352 134.68,-352 165.53,-362.54" style=""/>
<polygon fill="none" stroke="#1bc6a6" stroke-width="3" points="169.54,-359.69 169.54,-380.31 135.35,-392 90.38,-392 56.19,-380.31 56.19,-359.69 90.38,-348 135.35,-348 169.54,-359.69" style=""/>
<text text-anchor="middle" x="112.86" y="-365.8" font-family="Times,serif" font-size="14.00" style="">isSettable</text>
</g>
<!-- TokenDistributorWithNoVesting.setClaimableAmounts -->
<g id="node3" class="node" pointer-events="visible" data-name="TokenDistributorWithNoVesting.setClaimableAmounts">

<ellipse fill="#ffbdb9" stroke="#ffbdb9" stroke-width="3" cx="112.86" cy="-312" rx="96.73" ry="18" style=""/>
<text text-anchor="middle" x="112.86" y="-307.8" font-family="Times,serif" font-size="14.00" style="">setClaimableAmounts</text>
</g>
<!-- TokenDistributorWithNoVesting.setClaimableAmounts&#45;&gt;TokenDistributorWithNoVesting.address -->
<g id="edge3" class="edge" data-name="TokenDistributorWithNoVesting.setClaimableAmounts-&gt;TokenDistributorWithNoVesting.address">

<path fill="none" stroke="#1bc6a6" stroke-width="2" d="M204.76,-305.26C221.14,-305.21 237.68,-305.43 252.44,-305.92" style=""/>
<polygon fill="#1bc6a6" stroke="#1bc6a6" stroke-width="2" points="252.28,-309.42 262.41,-306.32 252.56,-302.42 252.28,-309.42" style=""/>
</g>
<!-- TokenDistributorWithNoVesting.setClaimableAmounts&#45;&gt;TokenDistributorWithNoVesting.address -->
<g id="edge5" class="edge" data-name="TokenDistributorWithNoVesting.setClaimableAmounts-&gt;TokenDistributorWithNoVesting.address">

<path fill="none" stroke="#1bc6a6" stroke-width="2" d="M204.76,-318.74C221.14,-318.79 237.68,-318.57 252.44,-318.08" style=""/>
<polygon fill="#1bc6a6" stroke="#1bc6a6" stroke-width="2" points="252.56,-321.58 262.41,-317.68 252.28,-314.58 252.56,-321.58" style=""/>
</g>
<!-- IERC20.balanceOf -->
<g id="node9" class="node" pointer-events="visible" data-name="IERC20.balanceOf">

<ellipse fill="#edad56" stroke="#edad56" stroke-width="3" cx="305.02" cy="-119" rx="50.92" ry="18" style=""/>
<text text-anchor="middle" x="305.02" y="-114.8" font-family="Times,serif" font-size="14.00" style="">balanceOf</text>
</g>
<!-- TokenDistributorWithNoVesting.setClaimableAmounts&#45;&gt;IERC20.balanceOf -->
<g id="edge4" class="edge" data-name="TokenDistributorWithNoVesting.setClaimableAmounts-&gt;IERC20.balanceOf">

<path fill="none" stroke="white" stroke-width="2" d="M188.48,-299.72C196.37,-296 203.7,-291.2 209.73,-285 245.21,-248.53 210.59,-217.04 237.73,-174 245.22,-162.11 256.15,-151.54 266.98,-142.92" style=""/>
<polygon fill="white" stroke="white" stroke-width="2" points="268.87,-145.88 274.78,-137.09 264.68,-140.27 268.87,-145.88" style=""/>
</g>
<!-- TokenDistributorWithNoVesting.claim -->
<g id="node4" class="node" pointer-events="visible" data-name="TokenDistributorWithNoVesting.claim">

<ellipse fill="#ffbdb9" stroke="#ffbdb9" stroke-width="3" cx="112.86" cy="-258" rx="32.47" ry="18" style=""/>
<text text-anchor="middle" x="112.86" y="-253.8" font-family="Times,serif" font-size="14.00" style="">claim</text>
</g>
<!-- TokenDistributorWithNoVesting._msgSender -->
<g id="node7" class="node" pointer-events="visible" data-name="TokenDistributorWithNoVesting._msgSender">

<ellipse fill="#edad56" stroke="#edad56" stroke-width="3" cx="305.02" cy="-258" rx="58.56" ry="18" style=""/>
<text text-anchor="middle" x="305.02" y="-253.8" font-family="Times,serif" font-size="14.00" style="">_msgSender</text>
</g>
<!-- TokenDistributorWithNoVesting.claim&#45;&gt;TokenDistributorWithNoVesting._msgSender -->
<g id="edge6" class="edge" data-name="TokenDistributorWithNoVesting.claim-&gt;TokenDistributorWithNoVesting._msgSender">

<path fill="none" stroke="#1bc6a6" stroke-width="2" d="M136.8,-244.25C166.58,-237.19 219.26,-235.88 257.55,-240.31" style=""/>
<polygon fill="#1bc6a6" stroke="#1bc6a6" stroke-width="2" points="257.05,-243.78 267.44,-241.7 258.02,-236.85 257.05,-243.78" style=""/>
</g>
<!-- TokenDistributorWithNoVesting.claim&#45;&gt;TokenDistributorWithNoVesting._msgSender -->
<g id="edge7" class="edge" data-name="TokenDistributorWithNoVesting.claim-&gt;TokenDistributorWithNoVesting._msgSender">

<path fill="none" stroke="#1bc6a6" stroke-width="2" d="M145.26,-252.83C169.72,-251.37 204.59,-250.92 235.42,-251.49" style=""/>
<polygon fill="#1bc6a6" stroke="#1bc6a6" stroke-width="2" points="235.24,-254.98 245.32,-251.72 235.4,-247.99 235.24,-254.98" style=""/>
</g>
<!-- TokenDistributorWithNoVesting.claim&#45;&gt;TokenDistributorWithNoVesting._msgSender -->
<g id="edge9" class="edge" data-name="TokenDistributorWithNoVesting.claim-&gt;TokenDistributorWithNoVesting._msgSender">

<path fill="none" stroke="#1bc6a6" stroke-width="2" d="M145.26,-263.17C169.72,-264.63 204.59,-265.08 235.42,-264.51" style=""/>
<polygon fill="#1bc6a6" stroke="#1bc6a6" stroke-width="2" points="235.4,-268.01 245.32,-264.28 235.24,-261.02 235.4,-268.01" style=""/>
</g>
<!-- TokenDistributorWithNoVesting.claim&#45;&gt;TokenDistributorWithNoVesting._msgSender -->
<g id="edge10" class="edge" data-name="TokenDistributorWithNoVesting.claim-&gt;TokenDistributorWithNoVesting._msgSender">

<path fill="none" stroke="#1bc6a6" stroke-width="2" d="M136.8,-271.75C166.58,-278.81 219.26,-280.12 257.55,-275.69" style=""/>
<polygon fill="#1bc6a6" stroke="#1bc6a6" stroke-width="2" points="258.02,-279.15 267.44,-274.3 257.05,-272.22 258.02,-279.15" style=""/>
</g>
<!-- SafeERC20.safeTransfer -->
<g id="node10" class="node" pointer-events="visible" data-name="SafeERC20.safeTransfer">

<ellipse fill="#edad56" stroke="#edad56" stroke-width="3" cx="305.02" cy="-34" rx="59.08" ry="18" style=""/>
<text text-anchor="middle" x="305.02" y="-29.8" font-family="Times,serif" font-size="14.00" style="">safeTransfer</text>
</g>
<!-- TokenDistributorWithNoVesting.claim&#45;&gt;SafeERC20.safeTransfer -->
<g id="edge8" class="edge" data-name="TokenDistributorWithNoVesting.claim-&gt;SafeERC20.safeTransfer">

<path fill="none" stroke="white" stroke-width="2" d="M146.79,-257.15C167.72,-254.82 193.78,-248.28 209.73,-231 253.36,-183.74 204.85,-144.29 237.73,-89 244.61,-77.43 254.84,-67.2 265.22,-58.79" style=""/>
<polygon fill="white" stroke="white" stroke-width="2" points="267.24,-61.66 273.12,-52.84 263.03,-56.07 267.24,-61.66" style=""/>
</g>
<!-- TokenDistributorWithNoVesting.sweep -->
<g id="node5" class="node" pointer-events="visible" data-name="TokenDistributorWithNoVesting.sweep">

<ellipse fill="#ffbdb9" stroke="#ffbdb9" stroke-width="3" cx="112.86" cy="-204" rx="35.34" ry="18" style=""/>
<text text-anchor="middle" x="112.86" y="-199.8" font-family="Times,serif" font-size="14.00" style="">sweep</text>
</g>
<!-- TokenDistributorWithNoVesting.sweep&#45;&gt;TokenDistributorWithNoVesting.address -->
<g id="edge12" class="edge" data-name="TokenDistributorWithNoVesting.sweep-&gt;TokenDistributorWithNoVesting.address">

<path fill="none" stroke="#1bc6a6" stroke-width="2" d="M148.93,-207.02C168.6,-210.27 192.57,-217.02 209.73,-231 230.69,-248.07 217.76,-266.78 237.73,-285 243.32,-290.1 249.99,-294.3 256.93,-297.74" style=""/>
<polygon fill="#1bc6a6" stroke="#1bc6a6" stroke-width="2" points="255.34,-300.87 265.91,-301.63 258.13,-294.44 255.34,-300.87" style=""/>
</g>
<!-- TokenDistributorWithNoVesting.owner -->
<g id="node8" class="node" pointer-events="visible" data-name="TokenDistributorWithNoVesting.owner">

<ellipse fill="#edad56" stroke="#edad56" stroke-width="3" cx="305.02" cy="-204" rx="35.34" ry="18" style=""/>
<text text-anchor="middle" x="305.02" y="-199.8" font-family="Times,serif" font-size="14.00" style="">owner</text>
</g>
<!-- TokenDistributorWithNoVesting.sweep&#45;&gt;TokenDistributorWithNoVesting.owner -->
<g id="edge14" class="edge" data-name="TokenDistributorWithNoVesting.sweep-&gt;TokenDistributorWithNoVesting.owner">

<path fill="none" stroke="#1bc6a6" stroke-width="2" d="M148.3,-198.66C178.72,-197 223.36,-196.8 257.06,-198.09" style=""/>
<polygon fill="#1bc6a6" stroke="#1bc6a6" stroke-width="2" points="256.66,-201.57 266.81,-198.53 256.99,-194.58 256.66,-201.57" style=""/>
</g>
<!-- TokenDistributorWithNoVesting.sweep&#45;&gt;TokenDistributorWithNoVesting.owner -->
<g id="edge15" class="edge" data-name="TokenDistributorWithNoVesting.sweep-&gt;TokenDistributorWithNoVesting.owner">

<path fill="none" stroke="#1bc6a6" stroke-width="2" d="M148.3,-209.34C178.72,-211 223.36,-211.2 257.06,-209.91" style=""/>
<polygon fill="#1bc6a6" stroke="#1bc6a6" stroke-width="2" points="256.99,-213.42 266.81,-209.47 256.66,-206.43 256.99,-213.42" style=""/>
</g>
<!-- TokenDistributorWithNoVesting.sweep&#45;&gt;IERC20.balanceOf -->
<g id="edge11" class="edge" data-name="TokenDistributorWithNoVesting.sweep-&gt;IERC20.balanceOf">

<path fill="none" stroke="white" stroke-width="2" d="M141.11,-191.82C171.92,-178.05 222.58,-155.4 259.23,-139.02" style=""/>
<polygon fill="white" stroke="white" stroke-width="2" points="260.61,-142.24 268.31,-134.96 257.75,-135.85 260.61,-142.24" style=""/>
</g>
<!-- TokenDistributorWithNoVesting.sweep&#45;&gt;SafeERC20.safeTransfer -->
<g id="edge13" class="edge" data-name="TokenDistributorWithNoVesting.sweep-&gt;SafeERC20.safeTransfer">

<path fill="none" stroke="white" stroke-width="2" d="M131.22,-187.31C154.93,-164.65 198.92,-123.07 237.73,-89 248.71,-79.36 260.98,-69.06 271.94,-60.01" style=""/>
<polygon fill="white" stroke="white" stroke-width="2" points="274.12,-62.75 279.62,-53.7 269.67,-57.34 274.12,-62.75" style=""/>
</g>
<!-- key -->
<g id="node11" class="node" pointer-events="visible" data-name="key">

<polygon fill="#edad56" stroke="none" stroke-width="3" points="177.86,-583 47.86,-583 47.86,-495 177.86,-495 177.86,-583" style=""/>
<text text-anchor="start" x="97.5" y="-564.4" font-family="Times,serif" font-size="14.00" style="">Internal Call</text>
<text text-anchor="start" x="93.61" y="-544.4" font-family="Times,serif" font-size="14.00" style="">External Call</text>
<text text-anchor="start" x="71.07" y="-524.4" font-family="Times,serif" font-size="14.00" style="">Defined Contract</text>
<text text-anchor="start" x="57.47" y="-504.4" font-family="Times,serif" font-size="14.00" style="">Undefined Contract</text>
</g>
<!-- key2 -->
<g id="node12" class="node" pointer-events="visible" data-name="key2">

<polygon fill="#edad56" stroke="none" stroke-width="3" points="332.02,-583 278.02,-583 278.02,-495 332.02,-495 332.02,-583" style=""/>
<text text-anchor="start" x="295.02" y="-564.4" font-family="Times,serif" font-size="14.00" style="">   </text>
<text text-anchor="start" x="295.02" y="-544.4" font-family="Times,serif" font-size="14.00" style="">   </text>
<polygon fill="#445773" stroke="none" points="293.02,-519 293.02,-539 318.02,-539 318.02,-519 293.02,-519" style=""/>
<text text-anchor="start" x="295.02" y="-524.4" font-family="Times,serif" font-size="14.00" style="">   </text>
<polygon fill="none" stroke="#e8726d" points="295.02,-501 295.02,-517 316.02,-517 316.02,-501 295.02,-501" style=""/>
</g>
<!-- key&#45;&gt;key2 -->
<g id="edge16" class="edge" data-name="key-&gt;key2">

<path fill="none" stroke="#1bc6a6" stroke-width="2" d="M170.86,-569C220.19,-569 235.63,-569 279.26,-569" style=""/>
<polygon fill="#1bc6a6" stroke="#1bc6a6" stroke-width="2" points="278.99,-572.5 288.99,-569 278.99,-565.5 278.99,-572.5" style=""/>
</g>
<!-- key&#45;&gt;key2 -->
<g id="edge17" class="edge" data-name="key-&gt;key2">

<path fill="none" stroke="white" stroke-width="2" d="M170.86,-549C220.19,-549 235.63,-549 279.26,-549" style=""/>
<polygon fill="white" stroke="white" stroke-width="2" points="278.99,-552.5 288.99,-549 278.99,-545.5 278.99,-552.5" style=""/>
</g>
</g>
</svg>