<?xml version="1.0" standalone="no"?>
<svg xmlns="http://www.w3.org/2000/svg" xmlns:xlink="http://www.w3.org/1999/xlink" width="782pt" height="802pt" viewBox="0.00 0.00 782.14 802.00">
<g id="graph0" class="graph" transform="translate(4,798) scale(1)" data-name="G">

<polygon fill="#2e3e56" stroke="none" points="-4,4 -4,-798 778.14,-798 778.14,4 -4,4" style=""/>
<g id="clust1" class="cluster" data-name="clusterTokenDistributor">

<path fill="#445773" stroke="#445773" d="M20,-178C20,-178 754.14,-178 754.14,-178 760.14,-178 766.14,-184 766.14,-190 766.14,-190 766.14,-637 766.14,-637 766.14,-643 760.14,-649 754.14,-649 754.14,-649 20,-649 20,-649 14,-649 8,-643 8,-637 8,-637 8,-190 8,-190 8,-184 14,-178 20,-178" style=""/>
<text text-anchor="middle" x="387.07" y="-632.4" font-family="Times,serif" font-size="14.00" fill="#f0f0f0" style="">TokenDistributor</text>
</g>
<g id="clust2" class="cluster" data-name="clusterIERC20">

<path fill="#3b4b63" stroke="#e8726d" stroke-dasharray="5,2" d="M315.71,-93C315.71,-93 409.13,-93 409.13,-93 415.13,-93 421.13,-99 421.13,-105 421.13,-105 421.13,-158 421.13,-158 421.13,-164 415.13,-170 409.13,-170 409.13,-170 315.71,-170 315.71,-170 309.71,-170 303.71,-164 303.71,-158 303.71,-158 303.71,-105 303.71,-105 303.71,-99 309.71,-93 315.71,-93" style=""/>
<text text-anchor="middle" x="362.42" y="-153.4" font-family="Times,serif" font-size="14.00" fill="#f0f0f0" style="">IERC20</text>
</g>
<g id="clust3" class="cluster" data-name="clusterSafeERC20">

<path fill="#3b4b63" stroke="#e8726d" stroke-dasharray="5,2" d="M307.13,-8C307.13,-8 417.7,-8 417.7,-8 423.7,-8 429.7,-14 429.7,-20 429.7,-20 429.7,-73 429.7,-73 429.7,-79 423.7,-85 417.7,-85 417.7,-85 307.13,-85 307.13,-85 301.13,-85 295.13,-79 295.13,-73 295.13,-73 295.13,-20 295.13,-20 295.13,-14 301.13,-8 307.13,-8" style=""/>
<text text-anchor="middle" x="362.42" y="-68.4" font-family="Times,serif" font-size="14.00" fill="#f0f0f0" style="">SafeERC20</text>
</g>
<g id="clust4" class="cluster" data-name="cluster_01">

<polygon fill="#2e3e56" stroke="black" points="39.86,-657 39.86,-786 397.42,-786 397.42,-657 39.86,-657" style=""/>
<text text-anchor="middle" x="218.64" y="-769.4" font-family="Times,serif" font-size="14.00" style="">Legend</text>
</g>
<!-- TokenDistributor.&lt;Constructor&gt; -->
<g id="node1" class="node" pointer-events="visible" data-name="TokenDistributor.&lt;Constructor&gt;">

<ellipse fill="#ff9797" stroke="#ff9797" stroke-width="3" cx="112.86" cy="-598" rx="67.55" ry="18" style=""/>
<text text-anchor="middle" x="112.86" y="-593.8" font-family="Times,serif" font-size="14.00" style="">&lt;Constructor&gt;</text>
</g>
<!-- TokenDistributor._disableInitializers -->
<g id="node11" class="node" pointer-events="visible" data-name="TokenDistributor._disableInitializers">

<ellipse fill="#edad56" stroke="#edad56" stroke-width="3" cx="362.42" cy="-598" rx="84.52" ry="18" style=""/>
<text text-anchor="middle" x="362.42" y="-593.8" font-family="Times,serif" font-size="14.00" style="">_disableInitializers</text>
</g>
<!-- TokenDistributor.&lt;Constructor&gt;&#45;&gt;TokenDistributor._disableInitializers -->
<g id="edge1" class="edge" data-name="TokenDistributor.&lt;Constructor&gt;-&gt;TokenDistributor._disableInitializers">

<path fill="none" stroke="#1bc6a6" stroke-width="2" d="M181.84,-598C207.17,-598 236.44,-598 263.91,-598" style=""/>
<polygon fill="#1bc6a6" stroke="#1bc6a6" stroke-width="2" points="263.77,-601.5 273.77,-598 263.77,-594.5 263.77,-601.5" style=""/>
</g>
<!-- TokenDistributor.isParamsValid -->
<g id="node2" class="node" pointer-events="visible" data-name="TokenDistributor.isParamsValid">

<polygon fill="#edad56" stroke="#1bc6a6" stroke-width="3" points="185.69,-532.54 185.69,-547.46 143.03,-558 82.7,-558 40.04,-547.46 40.04,-532.54 82.7,-522 143.03,-522 185.69,-532.54" style=""/>
<polygon fill="none" stroke="#1bc6a6" stroke-width="3" points="189.69,-529.41 189.69,-550.59 143.52,-562 82.21,-562 36.04,-550.59 36.04,-529.41 82.21,-518 143.52,-518 189.69,-529.41" style=""/>
<text text-anchor="middle" x="112.86" y="-535.8" font-family="Times,serif" font-size="14.00" style="">isParamsValid</text>
</g>
<!-- TokenDistributor.isSettable -->
<g id="node3" class="node" pointer-events="visible" data-name="TokenDistributor.isSettable">

<polygon fill="#edad56" stroke="#1bc6a6" stroke-width="3" points="165.53,-470.54 165.53,-485.46 134.68,-496 91.05,-496 60.2,-485.46 60.2,-470.54 91.05,-460 134.68,-460 165.53,-470.54" style=""/>
<polygon fill="none" stroke="#1bc6a6" stroke-width="3" points="169.54,-467.69 169.54,-488.31 135.35,-500 90.38,-500 56.19,-488.31 56.19,-467.69 90.38,-456 135.35,-456 169.54,-467.69" style=""/>
<text text-anchor="middle" x="112.86" y="-473.8" font-family="Times,serif" font-size="14.00" style="">isSettable</text>
</g>
<!-- TokenDistributor.initialize -->
<g id="node4" class="node" pointer-events="visible" data-name="TokenDistributor.initialize">

<ellipse fill="#ffbdb9" stroke="#ffbdb9" stroke-width="3" cx="112.86" cy="-420" rx="44.64" ry="18" style=""/>
<text text-anchor="middle" x="112.86" y="-415.8" font-family="Times,serif" font-size="14.00" style="">initialize</text>
</g>
<!-- TokenDistributor.address -->
<g id="node12" class="node" pointer-events="visible" data-name="TokenDistributor.address">

<ellipse fill="#edad56" stroke="#edad56" stroke-width="3" cx="362.42" cy="-366" rx="40" ry="18" style=""/>
<text text-anchor="middle" x="362.42" y="-361.8" font-family="Times,serif" font-size="14.00" style="">address</text>
</g>
<!-- TokenDistributor.initialize&#45;&gt;TokenDistributor.address -->
<g id="edge2" class="edge" data-name="TokenDistributor.initialize-&gt;TokenDistributor.address">

<path fill="none" stroke="#1bc6a6" stroke-width="2" d="M153.91,-411.26C197.07,-401.85 265.78,-386.86 312.2,-376.74" style=""/>
<polygon fill="#1bc6a6" stroke="#1bc6a6" stroke-width="2" points="312.68,-380.21 321.7,-374.66 311.18,-373.38 312.68,-380.21" style=""/>
</g>
<!-- TokenDistributor._transferOwnership -->
<g id="node13" class="node" pointer-events="visible" data-name="TokenDistributor._transferOwnership">

<ellipse fill="#edad56" stroke="#edad56" stroke-width="3" cx="362.42" cy="-474" rx="87.96" ry="18" style=""/>
<text text-anchor="middle" x="362.42" y="-469.8" font-family="Times,serif" font-size="14.00" style="">_transferOwnership</text>
</g>
<!-- TokenDistributor.initialize&#45;&gt;TokenDistributor._transferOwnership -->
<g id="edge3" class="edge" data-name="TokenDistributor.initialize-&gt;TokenDistributor._transferOwnership">

<path fill="none" stroke="#1bc6a6" stroke-width="2" d="M153.91,-428.74C189.53,-436.51 242.57,-448.08 286.11,-457.57" style=""/>
<polygon fill="#1bc6a6" stroke="#1bc6a6" stroke-width="2" points="285.22,-460.96 295.74,-459.67 286.71,-454.12 285.22,-460.96" style=""/>
</g>
<!-- TokenDistributor.IERC20 -->
<g id="node14" class="node" pointer-events="visible" data-name="TokenDistributor.IERC20">

<ellipse fill="#edad56" stroke="#edad56" stroke-width="3" cx="362.42" cy="-420" rx="42.88" ry="18" style=""/>
<text text-anchor="middle" x="362.42" y="-415.8" font-family="Times,serif" font-size="14.00" style="">IERC20</text>
</g>
<!-- TokenDistributor.initialize&#45;&gt;TokenDistributor.IERC20 -->
<g id="edge4" class="edge" data-name="TokenDistributor.initialize-&gt;TokenDistributor.IERC20">

<path fill="none" stroke="#1bc6a6" stroke-width="2" d="M158.98,-420C200.14,-420 261.13,-420 305.39,-420" style=""/>
<polygon fill="#1bc6a6" stroke="#1bc6a6" stroke-width="2" points="305.24,-423.5 315.24,-420 305.24,-416.5 305.24,-423.5" style=""/>
</g>
<!-- TokenDistributor.setClaimableAmounts -->
<g id="node5" class="node" pointer-events="visible" data-name="TokenDistributor.setClaimableAmounts">

<ellipse fill="#ffbdb9" stroke="#ffbdb9" stroke-width="3" cx="112.86" cy="-366" rx="96.73" ry="18" style=""/>
<text text-anchor="middle" x="112.86" y="-361.8" font-family="Times,serif" font-size="14.00" style="">setClaimableAmounts</text>
</g>
<!-- TokenDistributor.setClaimableAmounts&#45;&gt;TokenDistributor.address -->
<g id="edge5" class="edge" data-name="TokenDistributor.setClaimableAmounts-&gt;TokenDistributor.address">

<path fill="none" stroke="#1bc6a6" stroke-width="2" d="M205.34,-359.46C240.61,-358.99 279.65,-359.31 309.86,-360.4" style=""/>
<polygon fill="#1bc6a6" stroke="#1bc6a6" stroke-width="2" points="309.49,-363.89 319.63,-360.81 309.78,-356.89 309.49,-363.89" style=""/>
</g>
<!-- TokenDistributor.setClaimableAmounts&#45;&gt;TokenDistributor.address -->
<g id="edge7" class="edge" data-name="TokenDistributor.setClaimableAmounts-&gt;TokenDistributor.address">

<path fill="none" stroke="#1bc6a6" stroke-width="2" d="M205.34,-372.54C240.61,-373.01 279.65,-372.69 309.86,-371.6" style=""/>
<polygon fill="#1bc6a6" stroke="#1bc6a6" stroke-width="2" points="309.78,-375.11 319.63,-371.19 309.49,-368.11 309.78,-375.11" style=""/>
</g>
<!-- IERC20.balanceOf -->
<g id="node17" class="node" pointer-events="visible" data-name="IERC20.balanceOf">

<ellipse fill="#edad56" stroke="#edad56" stroke-width="3" cx="362.42" cy="-119" rx="50.92" ry="18" style=""/>
<text text-anchor="middle" x="362.42" y="-114.8" font-family="Times,serif" font-size="14.00" style="">balanceOf</text>
</g>
<!-- TokenDistributor.setClaimableAmounts&#45;&gt;IERC20.balanceOf -->
<g id="edge6" class="edge" data-name="TokenDistributor.setClaimableAmounts-&gt;IERC20.balanceOf">

<path fill="none" stroke="white" stroke-width="2" d="M188.67,-353.91C196.53,-350.16 203.8,-345.29 209.73,-339 261.2,-284.36 199.07,-232.79 245.73,-174 260.88,-154.91 284.26,-142.08 306.05,-133.66" style=""/>
<polygon fill="white" stroke="white" stroke-width="2" points="307.18,-136.97 315.42,-130.32 304.83,-130.38 307.18,-136.97" style=""/>
</g>
<!-- TokenDistributor.claim -->
<g id="node6" class="node" pointer-events="visible" data-name="TokenDistributor.claim">

<ellipse fill="#ffbdb9" stroke="#ffbdb9" stroke-width="3" cx="112.86" cy="-312" rx="32.47" ry="18" style=""/>
<text text-anchor="middle" x="112.86" y="-307.8" font-family="Times,serif" font-size="14.00" style="">claim</text>
</g>
<!-- TokenDistributor.calculateClaimableAmount -->
<g id="node9" class="node" pointer-events="visible" data-name="TokenDistributor.calculateClaimableAmount">

<ellipse fill="#edad56" stroke="#edad56" stroke-width="3" cx="362.42" cy="-258" rx="116.88" ry="18" style=""/>
<text text-anchor="middle" x="362.42" y="-253.8" font-family="Times,serif" font-size="14.00" style="">calculateClaimableAmount</text>
</g>
<!-- TokenDistributor.claim&#45;&gt;TokenDistributor.calculateClaimableAmount -->
<g id="edge9" class="edge" data-name="TokenDistributor.claim-&gt;TokenDistributor.calculateClaimableAmount">

<path fill="none" stroke="#1bc6a6" stroke-width="2" d="M144.72,-305.27C177.89,-298.03 232.05,-286.22 277.92,-276.21" style=""/>
<polygon fill="#1bc6a6" stroke="#1bc6a6" stroke-width="2" points="278.63,-279.64 287.66,-274.09 277.14,-272.8 278.63,-279.64" style=""/>
</g>
<!-- TokenDistributor._msgSender -->
<g id="node15" class="node" pointer-events="visible" data-name="TokenDistributor._msgSender">

<ellipse fill="#edad56" stroke="#edad56" stroke-width="3" cx="362.42" cy="-312" rx="58.56" ry="18" style=""/>
<text text-anchor="middle" x="362.42" y="-307.8" font-family="Times,serif" font-size="14.00" style="">_msgSender</text>
</g>
<!-- TokenDistributor.claim&#45;&gt;TokenDistributor._msgSender -->
<g id="edge8" class="edge" data-name="TokenDistributor.claim-&gt;TokenDistributor._msgSender">

<path fill="none" stroke="#1bc6a6" stroke-width="2" d="M146.74,-312C183.04,-312 242.6,-312 289.79,-312" style=""/>
<polygon fill="#1bc6a6" stroke="#1bc6a6" stroke-width="2" points="289.72,-315.5 299.72,-312 289.72,-308.5 289.72,-315.5" style=""/>
</g>
<!-- SafeERC20.safeTransfer -->
<g id="node18" class="node" pointer-events="visible" data-name="SafeERC20.safeTransfer">

<ellipse fill="#edad56" stroke="#edad56" stroke-width="3" cx="362.42" cy="-34" rx="59.08" ry="18" style=""/>
<text text-anchor="middle" x="362.42" y="-29.8" font-family="Times,serif" font-size="14.00" style="">safeTransfer</text>
</g>
<!-- TokenDistributor.claim&#45;&gt;SafeERC20.safeTransfer -->
<g id="edge10" class="edge" data-name="TokenDistributor.claim-&gt;SafeERC20.safeTransfer">

<path fill="none" stroke="white" stroke-width="2" d="M146.41,-311.27C167.44,-309.01 193.77,-302.51 209.73,-285 269.38,-219.53 191.82,-159.28 245.73,-89 259.65,-70.86 281.05,-58.42 301.67,-50.02" style=""/>
<polygon fill="white" stroke="white" stroke-width="2" points="302.69,-53.38 310.83,-46.6 300.24,-46.82 302.69,-53.38" style=""/>
</g>
<!-- TokenDistributor.sweep -->
<g id="node7" class="node" pointer-events="visible" data-name="TokenDistributor.sweep">

<ellipse fill="#ffbdb9" stroke="#ffbdb9" stroke-width="3" cx="112.86" cy="-258" rx="35.34" ry="18" style=""/>
<text text-anchor="middle" x="112.86" y="-253.8" font-family="Times,serif" font-size="14.00" style="">sweep</text>
</g>
<!-- TokenDistributor.sweep&#45;&gt;TokenDistributor.address -->
<g id="edge12" class="edge" data-name="TokenDistributor.sweep-&gt;TokenDistributor.address">

<path fill="none" stroke="#1bc6a6" stroke-width="2" d="M148.83,-261.82C168.24,-265.34 191.97,-272.09 209.73,-285 233.06,-301.96 222.02,-322.57 245.73,-339 264.05,-351.7 287.52,-358.48 308.52,-362.09" style=""/>
<polygon fill="#1bc6a6" stroke="#1bc6a6" stroke-width="2" points="307.82,-365.52 318.22,-363.51 308.83,-358.6 307.82,-365.52" style=""/>
</g>
<!-- TokenDistributor.owner -->
<g id="node16" class="node" pointer-events="visible" data-name="TokenDistributor.owner">

<ellipse fill="#edad56" stroke="#edad56" stroke-width="3" cx="362.42" cy="-204" rx="35.34" ry="18" style=""/>
<text text-anchor="middle" x="362.42" y="-199.8" font-family="Times,serif" font-size="14.00" style="">owner</text>
</g>
<!-- TokenDistributor.sweep&#45;&gt;TokenDistributor.owner -->
<g id="edge14" class="edge" data-name="TokenDistributor.sweep-&gt;TokenDistributor.owner">

<path fill="none" stroke="#1bc6a6" stroke-width="2" d="M143.23,-247.04C185.21,-235.3 262.83,-218.06 313.28,-209.03" style=""/>
<polygon fill="#1bc6a6" stroke="#1bc6a6" stroke-width="2" points="313.87,-212.48 323.12,-207.33 312.67,-205.58 313.87,-212.48" style=""/>
</g>
<!-- TokenDistributor.sweep&#45;&gt;TokenDistributor.owner -->
<g id="edge15" class="edge" data-name="TokenDistributor.sweep-&gt;TokenDistributor.owner">

<path fill="none" stroke="#1bc6a6" stroke-width="2" d="M149.07,-255.21C194.07,-247.77 271.86,-230.9 319.76,-218.29" style=""/>
<polygon fill="#1bc6a6" stroke="#1bc6a6" stroke-width="2" points="320.47,-221.72 329.21,-215.73 318.64,-214.97 320.47,-221.72" style=""/>
</g>
<!-- TokenDistributor.sweep&#45;&gt;IERC20.balanceOf -->
<g id="edge11" class="edge" data-name="TokenDistributor.sweep-&gt;IERC20.balanceOf">

<path fill="none" stroke="white" stroke-width="2" d="M148.95,-254.35C168.4,-250.88 192.13,-244.13 209.73,-231 233.74,-213.08 223.31,-193.88 245.73,-174 264.24,-157.58 288.52,-145.04 310.05,-136.11" style=""/>
<polygon fill="white" stroke="white" stroke-width="2" points="311.18,-139.43 319.2,-132.51 308.61,-132.92 311.18,-139.43" style=""/>
</g>
<!-- TokenDistributor.sweep&#45;&gt;SafeERC20.safeTransfer -->
<g id="edge13" class="edge" data-name="TokenDistributor.sweep-&gt;SafeERC20.safeTransfer">

<path fill="none" stroke="white" stroke-width="2" d="M149.27,-256.52C169.57,-253.81 194.04,-247.1 209.73,-231 255.16,-184.36 204.4,-139.31 245.73,-89 260.3,-71.26 281.94,-58.88 302.56,-50.43" style=""/>
<polygon fill="white" stroke="white" stroke-width="2" points="303.59,-53.78 311.7,-46.97 301.11,-47.24 303.59,-53.78" style=""/>
</g>
<!-- TokenDistributor.updatePoolParams -->
<g id="node8" class="node" pointer-events="visible" data-name="TokenDistributor.updatePoolParams">

<ellipse fill="#ffbdb9" stroke="#ffbdb9" stroke-width="3" cx="112.86" cy="-204" rx="82.83" ry="18" style=""/>
<text text-anchor="middle" x="112.86" y="-199.8" font-family="Times,serif" font-size="14.00" style="">updatePoolParams</text>
</g>
<!-- TokenDistributor._calculateClaimableAmount -->
<g id="node10" class="node" pointer-events="visible" data-name="TokenDistributor._calculateClaimableAmount">

<ellipse fill="#edad56" stroke="#edad56" stroke-width="3" cx="636.62" cy="-258" rx="121.53" ry="18" style=""/>
<text text-anchor="middle" x="636.62" y="-253.8" font-family="Times,serif" font-size="14.00" style="">_calculateClaimableAmount</text>
</g>
<!-- TokenDistributor.calculateClaimableAmount&#45;&gt;TokenDistributor._calculateClaimableAmount -->
<g id="edge16" class="edge" data-name="TokenDistributor.calculateClaimableAmount-&gt;TokenDistributor._calculateClaimableAmount">

<path fill="none" stroke="#1bc6a6" stroke-width="2" d="M480.44,-258C487.28,-258 494.2,-258 501.1,-258" style=""/>
<polygon fill="#1bc6a6" stroke="#1bc6a6" stroke-width="2" points="500.91,-261.5 510.91,-258 500.91,-254.5 500.91,-261.5" style=""/>
</g>
<!-- key -->
<g id="node19" class="node" pointer-events="visible" data-name="key">

<polygon fill="#edad56" stroke="none" stroke-width="3" points="177.86,-753 47.86,-753 47.86,-665 177.86,-665 177.86,-753" style=""/>
<text text-anchor="start" x="97.5" y="-734.4" font-family="Times,serif" font-size="14.00" style="">Internal Call</text>
<text text-anchor="start" x="93.61" y="-714.4" font-family="Times,serif" font-size="14.00" style="">External Call</text>
<text text-anchor="start" x="71.07" y="-694.4" font-family="Times,serif" font-size="14.00" style="">Defined Contract</text>
<text text-anchor="start" x="57.47" y="-674.4" font-family="Times,serif" font-size="14.00" style="">Undefined Contract</text>
</g>
<!-- key2 -->
<g id="node20" class="node" pointer-events="visible" data-name="key2">

<polygon fill="#edad56" stroke="none" stroke-width="3" points="389.42,-753 335.42,-753 335.42,-665 389.42,-665 389.42,-753" style=""/>
<text text-anchor="start" x="352.42" y="-734.4" font-family="Times,serif" font-size="14.00" style="">   </text>
<text text-anchor="start" x="352.42" y="-714.4" font-family="Times,serif" font-size="14.00" style="">   </text>
<polygon fill="#445773" stroke="none" points="350.42,-689 350.42,-709 375.42,-709 375.42,-689 350.42,-689" style=""/>
<text text-anchor="start" x="352.42" y="-694.4" font-family="Times,serif" font-size="14.00" style="">   </text>
<polygon fill="none" stroke="#e8726d" points="352.42,-671 352.42,-687 373.42,-687 373.42,-671 352.42,-671" style=""/>
</g>
<!-- key&#45;&gt;key2 -->
<g id="edge17" class="edge" data-name="key-&gt;key2">

<path fill="none" stroke="#1bc6a6" stroke-width="2" d="M170.86,-739C245.73,-739 267.62,-739 336.48,-739" style=""/>
<polygon fill="#1bc6a6" stroke="#1bc6a6" stroke-width="2" points="336.39,-742.5 346.39,-739 336.39,-735.5 336.39,-742.5" style=""/>
</g>
<!-- key&#45;&gt;key2 -->
<g id="edge18" class="edge" data-name="key-&gt;key2">

<path fill="none" stroke="white" stroke-width="2" d="M170.86,-719C245.73,-719 267.62,-719 336.48,-719" style=""/>
<polygon fill="white" stroke="white" stroke-width="2" points="336.39,-722.5 346.39,-719 336.39,-715.5 336.39,-722.5" style=""/>
</g>
</g>
</svg>